<svg xmlns="http://www.w3.org/2000/svg" viewBox="0 0 757 559.5">
  <defs>
    <style>
      .cls-1 {
        fill: #0a3c72;
      }

      .cls-2 {
        fill: #49456b;
      }

      .cls-3 {
        fill: #484369;
      }

      .cls-4 {
        fill: #658fc2;
      }
    </style>
  </defs>
  <g id="Layer_2" data-name="Layer 2">
    <g id="Layer_1-2" data-name="Layer 1">
      <g>
        <path class="cls-1" d="M568.6,361c.4-3.2.7-5.3.9-7.6H583c0,20.8.7,41.5-.3,62.1-.6,14.8-9.3,23.7-23.8,27.7s-28.2,1.2-40.9-8l7.7-10.5c10.7,7.7,22.1,10.9,34.3,4,6.2-3.6,9-11.8,7.9-21.7-6,7.3-13.7,10.1-22.5,9.9-15.6-.4-25.7-9.7-28.6-26-3.3-18.9,6.2-35.1,23.3-39C550.8,349.5,560.2,352.3,568.6,361Zm-.1,23c-.1-12-7.6-20-18.8-19.9s-18.6,8.6-18.6,20.4,7.4,19.3,18.3,19.3S568.5,395.6,568.5,384Z"/>
        <path class="cls-1" d="M429.1,338.3c-3.2,4.2-6.2,8.1-9.1,12.1-8-6.7-16.5-10.9-27.1-8.5-5.4,1.2-9,4.4-9.6,10s2.5,9.1,7,11c6.7,2.9,13.7,5,20.5,7.5,16.8,6.2,23.1,17.4,18.4,33.2-3.2,10.5-11.5,15.3-21.3,17.4-16.8,3.6-31-2.2-43.8-13.3,3.2-3.8,6.2-7.5,9.4-11.5,7.8,7.4,16.7,12.2,27.7,11.3a22.1,22.1,0,0,0,8.4-2.5c7.7-4.3,7.8-13.8.1-18.1-4.7-2.5-10.1-3.9-15.2-5.8s-8.6-2.6-12.7-4.5c-9.5-4.6-14.8-12.1-14.4-23s5.7-19.6,16.7-23.6C400.6,323.9,415.3,327.6,429.1,338.3Z"/>
        <path class="cls-2" d="M531,528.9v30.6H516.6v-89h12.8c.3,2.3.7,4.9,1.1,8,5.2-5.8,11.2-9.5,18.6-10.3,12-1.1,23.2,4.6,28.2,15.6,6.8,14.9,6.4,29.8-3.8,43.2-8.8,11.8-25.4,14-37.4,5.6Zm-.4-26.7a52.9,52.9,0,0,0,.8,7.9c1.5,6.8,5.7,11.7,12.4,13.6s12.6.7,17.5-4.3c8.4-8.7,7.3-27.8-2.4-35a15.6,15.6,0,0,0-7.1-3.1C539.7,479.4,530.9,488.2,530.6,502.2Z"/>
        <path class="cls-2" d="M435.2,459.7l-9.8,10.7c-7.1-7.7-15.7-11.2-26.3-9.4s-16.7,7.3-20.5,16.3a37.3,37.3,0,0,0-.8,26.9c3.1,9.6,9.6,16.1,19.9,18.1s20.4-.8,27.4-10.5l11.7,9.9c-14.2,19.7-46.6,21.6-64.2,3.8s-16.8-53.6,3.1-70.3C393.4,440.4,418.9,442.2,435.2,459.7Z"/>
        <path class="cls-1" d="M577.2,306.8V212.4h14.9v35.7c3.5-2.6,6.3-5.1,9.6-6.8,16.6-8.7,33.9,1.1,34.5,19.8.4,15.1.1,30.3.1,45.7H621.4V272.6a52.9,52.9,0,0,0-.4-8c-1.5-8.5-6.7-13.1-14-12.5a15.7,15.7,0,0,0-14.7,15.3c-.1,13-.1,26-.1,39.4Z"/>
        <path class="cls-1" d="M501.9,420.7H488l-1-7.3c-1.3,1.2-2.4,2-3.4,2.8-9.6,8.2-27.3,8.1-35.4-.3-6.3-6.5-7.6-14.4-4.8-22.7,3.4-9.9,12-13.1,21.3-13.6,7-.4,14.1,1,21.4,1.6,2.4-8.8-2.5-16-12.2-17.3s-15.7,1.4-22.7,6.2l-3.8-10.3c10.7-9.8,32.1-11.5,43.9-3.7,8.3,5.5,10.4,13.9,10.5,23C502,392.8,501.9,406.5,501.9,420.7ZM485.7,391c-6.6,0-13.5-.5-20.3.1-4.5.5-7.2,3.9-7.3,8.7s2.3,8.1,6.9,9.7C477.3,413.9,488,405,485.7,391Z"/>
        <path class="cls-1" d="M661.4,391H612c.9,7.6,4.3,13.1,11,15.8,9.9,3.9,18.8,1.5,26.2-6.6l8.9,9.5c-10.8,13.7-33.8,16.2-47.9,6.2s-17.3-30.6-9.7-46.7c6.7-14.3,22.3-21.4,38.1-16.9,12.7,3.6,19.1,13,21.5,25.5C660.9,381.9,661,386.1,661.4,391Zm-49-10.8h34c-.9-10.1-8.2-17.2-17.1-17.1S613,370.7,612.4,380.2Z"/>
        <path class="cls-1" d="M494.3,278.1h-50c1.1,7.5,4.5,13,11.2,16,8.3,3.7,17.5,1.5,25.9-5.8l9,8.9C482.7,307.3,467,311.9,453,308a32.2,32.2,0,0,1-23.6-27.5c-3.2-27.6,16.1-47.2,40.9-41.2,13.2,3.2,19.8,12.8,22.4,25.4C493.6,268.9,493.8,273.3,494.3,278.1Zm-15.1-10.2c-1.3-10.7-8.8-17.9-18.2-17.4s-16.1,8.4-16.5,17.4Z"/>
        <path class="cls-2" d="M486.2,498.1c.6-5.9.4-11.6-5.1-14.8-10.1-5.8-19.4-2-28.6,3.5-1.4-3.4-2.7-6.6-3.9-9.9,12.4-13.1,40.9-11.5,49,3.4a32.8,32.8,0,0,1,3.6,14.2c.4,13.6.1,27.3.1,41.3H487.7c-.2-2-.4-4-.7-6.7-6.3,7.5-14.2,9.1-23,8.4-12.2-1-19.7-8.4-20.3-20.4s6.2-19,18.4-20.8a52.7,52.7,0,0,1,11.9-.4C477.9,496.2,481.8,497.3,486.2,498.1Zm-.3,9.2c-6.7,0-13.2-.5-19.7.2-4.3.4-7,3.7-6.8,8.4s2.7,8.1,7.4,9.3C479,528.1,487,521.2,485.9,507.3Z"/>
        <path class="cls-2" d="M712.1,498.3c2.2-12-5.2-19.6-16.8-17.6a44.8,44.8,0,0,0-8.2,2.1c-2.6,1-5,2.4-7.8,3.8l-4-10.4c10.7-6.8,22.1-10.2,34.5-6.8,9.6,2.6,16,9.1,16.5,19,.7,15.8.2,31.6.2,47.5H713.6c-.2-2.1-.4-3.8-.6-6.5-8.5,9.1-18.4,9.7-28.7,6.8s-14.2-11.1-13.8-20.9,5.4-15.5,14.8-18.3S703.3,495.6,712.1,498.3Zm-.1,9c-6.6,0-13-.4-19.3.1-4.4.4-7,3.9-7.1,8.3s2.1,7.9,6.6,9.4C704.1,529.1,713.3,521.5,712,507.3Z"/>
        <path class="cls-1" d="M432.2,215.6v14.2H406.5v77h-16V230.2H364.6V215.6Z"/>
        <path class="cls-1" d="M554.8,287.4c3.4,3.4,6.8,6.8,10.3,10.1-13.1,14.4-36.1,15.9-49.5,3.3s-14.8-38.6-1.4-52.4,35.7-13.5,50.2,1.4l-9.1,11.3c-5-5.7-10.9-9.6-18.3-8.1-4.3.9-9,3-12,6-8,7.8-6.9,23.4,1.5,31.2S545.6,296.7,554.8,287.4Z"/>
        <path class="cls-2" d="M659.6,522.6l3.6,11.3a30.4,30.4,0,0,1-20,3.1c-8.3-1.4-13.8-8.8-13.9-18.7-.2-12-.1-24-.1-36.4h-9.7V469.5H629v-18h15.4v17.7h17.7v12.5H644.6c0,12.1-.4,23.8.2,35.5.2,5,4.2,6.9,9,6.3Z"/>
        <path class="cls-2" d="M742.9,441.6H757v94.2H742.9Z"/>
        <path class="cls-2" d="M607.9,535.9h-14V469.4h14Z"/>
        <path class="cls-2" d="M610.6,451.5a9,9,0,0,1-9.5,9.2c-5.4-.1-9.7-4.3-9.6-9.3a9.4,9.4,0,0,1,9.7-9.3A9.1,9.1,0,0,1,610.6,451.5Z"/>
      </g>
      <g>
        <path class="cls-3" d="M71.1,268.5l-5.3-.4-2.7-.5c-18.2-2.1-36.2-4.6-53.5-11.1-3.9-1.4-8.9-2.6-9.5-7.6s4.4-7.1,8.1-8.9c9.7-4.6,19.2-10.8,29.5-12.7,26.1-4.9,37.3-21.7,46.9-44.8,23-55.4,47.8-110.3,83.6-159.1,9.1-12.4,23-18.7,37.6-23,4.9-1.5,8.7,1.4,12.1,4.5q32.3,29.3,64.4,58.9c1.1,1,1.6,2.5,3.4,5.6a403.9,403.9,0,0,1-63-13.2c.4,4.8.8,9.4,1.2,14l-.3.3.3.3c4.8,48.6,17.6,95.2,33.7,141.1,1.6,4.5,5.8,5.2,9.5,6.4,18,6,36.3,11.4,52.9,21.2,3.6,2.2,8.5,4.1,8.2,9.1s-5.6,6.8-9.7,8.1c-9.7,3-19.7,5.3-29.6,7.9l-1.7.5L239,271.5c3.6,14.3,3.9,29.1,2,43.9l-.3.3.2.3c-3.3,36.4,20.4,58.7,43.8,82.1C199.9,426.6,134.4,486,58.5,537.3c9.1-19.6,15.2-35,16.6-51.8l.2-.3-.2-.4c2.5-20.4-3.6-40.1-5-60.2-2-27.9,4.3-54.2,17-80.3H55.7c3.3-24.4,17.1-43.5,23.9-65.2,5.7,3.9,6.4,6.7,4.3,16.2-1.2,5.7-2.8,11.2-4,16.9s-4.4,11.1-2.6,17.1c42.3,10.8,42.3,10.8,50.3,30.6,28.4-11.4,48-47.6,45.2-82.7l-101-8.6A.6.6,0,0,0,71.1,268.5ZM205.6,137c-20.1-22.9-66.6-20.3-78,23.8H115.3v11.6h10.3V180H115.3v11.9h12.8c6.1,21.7,18.9,35.7,41.5,38.2,14.9,1.7,27.6-3.6,37.6-15.5-3.9-4.1-7.5-8-11.4-12-10.1,9.4-21.2,14.4-34.6,8.4-7.9-3.6-12.4-10.1-14.6-19.2h31.9c1.3-3.9,2.3-7.3,3.7-11.5H144.3v-7.9h40.9l4.2-11.8H147.1c.7-20,20.6-24.6,49.3-11.7Z"/>
        <path class="cls-4" d="M57.4,114.3c-3-11.9-8-20.8-21.3-23.5C49,87.5,55.1,79,58.4,67c2.7,12.1,7.7,21.1,26.8,23.8C67.4,94.9,60.1,101.9,57.4,114.3Z"/>
        <path class="cls-4" d="M29.8,171.3c-2.1-10.2-8-16.1-21.5-19.4,13.3-3.1,18.6-9.5,21.2-23.6,3.3,13.8,8.1,20.8,22.1,23C38.3,155.4,31.9,161.1,29.8,171.3Z"/>
        <path class="cls-4" d="M63.1,267.6l2.7.5Z"/>
        <path class="cls-4" d="M287.2,265.1l1.7-.5Z"/>
        <path class="cls-4" d="M223.9,70.8l-.3-.3.3-.3A.4.4,0,0,1,223.9,70.8Z"/>
        <path class="cls-4" d="M71.1,268.5a.6.6,0,0,1,.7.1l-.4.2Z"/>
        <path class="cls-4" d="M240.9,316l-.2-.3.3-.3A.5.5,0,0,1,240.9,316Z"/>
        <path class="cls-4" d="M75.1,484.8l.2.4-.2.3C74.9,485.2,74.9,485,75.1,484.8Z"/>
        <path class="cls-4" d="M205.6,137l-9.2,11.9c-28.7-12.9-48.6-8.3-49.3,11.7h42.3l-4.2,11.8H144.3v7.9h37.9c-1.4,4.2-2.4,7.6-3.7,11.5H146.6c2.2,9.1,6.7,15.6,14.6,19.2,13.4,6,24.5,1,34.6-8.4,3.9,4,7.5,7.9,11.4,12-10,11.9-22.7,17.2-37.6,15.5-22.6-2.5-35.4-16.5-41.5-38.2H115.3V180h10.3v-7.6H115.3V160.8h12.3C139,116.7,185.5,114.1,205.6,137Z"/>
      </g>
    </g>
  </g>
</svg>
