<svg xmlns="http://www.w3.org/2000/svg" viewBox="0 0 328.2 537.3">
  <defs>
    <style>
      .cls-1 {
        fill: #ca031a;
      }

      .cls-2 {
        fill: #F5F1ED;
      }
    </style>
  </defs>
  <g id="Layer_2" data-name="Layer 2">
    <g id="Layer_1-2" data-name="Layer 1">
      <g>
        <path class="cls-1" d="M71.1,268.5l-5.3-.4-2.7-.5c-18.2-2.1-36.2-4.6-53.5-11.1-3.9-1.4-8.9-2.6-9.5-7.6s4.4-7.1,8.1-8.9c9.7-4.6,19.2-10.8,29.5-12.7,26.1-4.9,37.3-21.7,46.9-44.8,23-55.4,47.8-110.3,83.6-159.1,9.1-12.4,23-18.7,37.6-23,4.9-1.5,8.7,1.4,12.1,4.5q32.3,29.3,64.4,58.9c1.1,1,1.6,2.5,3.4,5.6a403.9,403.9,0,0,1-63-13.2c.4,4.8.8,9.4,1.2,14l-.3.3.3.3c4.8,48.6,17.6,95.2,33.7,141.1,1.6,4.5,5.8,5.2,9.5,6.4,18,6,36.3,11.4,52.9,21.2,3.6,2.2,8.5,4.1,8.2,9.1s-5.6,6.8-9.7,8.1c-9.7,3-19.7,5.3-29.6,7.9l-1.7.5L239,271.5c3.6,14.3,3.9,29.1,2,43.9l-.3.3.2.3c-3.3,36.4,20.4,58.7,43.8,82.1C199.9,426.6,134.4,486,58.5,537.3c9.1-19.6,15.2-35,16.6-51.8l.2-.3-.2-.4c2.5-20.4-3.6-40.1-5-60.2-2-27.9,4.3-54.2,17-80.3H55.7c3.3-24.4,17.1-43.5,23.9-65.2,5.7,3.9,6.4,6.7,4.3,16.2-1.2,5.7-2.8,11.2-4,16.9s-4.4,11.1-2.6,17.1c42.3,10.8,42.3,10.8,50.3,30.6,28.4-11.4,48-47.6,45.2-82.7l-101-8.6A.6.6,0,0,0,71.1,268.5ZM205.6,137c-20.1-22.9-66.6-20.3-78,23.8H115.3v11.6h10.3V180H115.3v11.9h12.8c6.1,21.7,18.9,35.7,41.5,38.2,14.9,1.7,27.6-3.6,37.6-15.5-3.9-4.1-7.5-8-11.4-12-10.1,9.4-21.2,14.4-34.6,8.4-7.9-3.6-12.4-10.1-14.6-19.2h31.9c1.3-3.9,2.3-7.3,3.7-11.5H144.3v-7.9h40.9l4.2-11.8H147.1c.7-20,20.6-24.6,49.3-11.7Z"/>
        <path class="cls-2" d="M57.4,114.3c-3-11.9-8-20.8-21.3-23.5C49,87.5,55.1,79,58.4,67c2.7,12.1,7.7,21.1,26.8,23.8C67.4,94.9,60.1,101.9,57.4,114.3Z"/>
        <path class="cls-2" d="M29.8,171.3c-2.1-10.2-8-16.1-21.5-19.4,13.3-3.1,18.6-9.5,21.2-23.6,3.3,13.8,8.1,20.8,22.1,23C38.3,155.4,31.9,161.1,29.8,171.3Z"/>
        <path class="cls-2" d="M63.1,267.6l2.7.5Z"/>
        <path class="cls-2" d="M287.2,265.1l1.7-.5Z"/>
        <path class="cls-2" d="M223.9,70.8l-.3-.3.3-.3A.4.4,0,0,1,223.9,70.8Z"/>
        <path class="cls-2" d="M71.1,268.5a.6.6,0,0,1,.7.1l-.4.2Z"/>
        <path class="cls-2" d="M240.9,316l-.2-.3.3-.3A.5.5,0,0,1,240.9,316Z"/>
        <path class="cls-2" d="M75.1,484.8l.2.4-.2.3C74.9,485.2,74.9,485,75.1,484.8Z"/>
        <path class="cls-2" d="M205.6,137l-9.2,11.9c-28.7-12.9-48.6-8.3-49.3,11.7h42.3l-4.2,11.8H144.3v7.9h37.9c-1.4,4.2-2.4,7.6-3.7,11.5H146.6c2.2,9.1,6.7,15.6,14.6,19.2,13.4,6,24.5,1,34.6-8.4,3.9,4,7.5,7.9,11.4,12-10,11.9-22.7,17.2-37.6,15.5-22.6-2.5-35.4-16.5-41.5-38.2H115.3V180h10.3v-7.6H115.3V160.8h12.3C139,116.7,185.5,114.1,205.6,137Z"/>
      </g>
    </g>
  </g>
</svg>
